<svg xmlns:xlink="http://www.w3.org/1999/xlink" height="424" xmlns:ev="http://www.w3.org/2001/xml-events" width="864" viewBox="0 0 864 424" xmlns="http://www.w3.org/2000/svg"><style type="text/css"><![CDATA[
.st1 {fill:#000000;font-family:宋体;font-size:11pt;font-weight:bold}
.st2 {fill:#000000;font-family:宋体;font-size:11pt}
]]></style><defs/><g transform="translate(5,5)" id="page1"><rect height="414" stroke="#808080" y="0" width="854" x="0" fill="#ffffff"/><path stroke="#ff0000" d="M347.6,315.9L343.5,311.8L340.6,270.3C338.5,272.6,336.7,274.6,335,276.3L322.6,288.6L318.4,284.5L343.2,259.6L346.6,263L349.5,298.7L349.8,305.4C351.9,302.9,354,300.7,356,298.7L370.1,284.7L374.5,289.1L347.6,315.9M376.3,287.3L372.1,283.1L369.3,241.6C367.2,243.9,365.3,245.9,363.6,247.6L351.3,260L347.1,255.8L371.9,231L375.3,234.4L378.1,270.1L378.5,276.8C380.6,274.3,382.7,272.1,384.7,270L398.7,256L403.1,260.4L376.3,287.3M371.7,220L365.7,214.1L370.9,208.9L376.8,214.9L371.7,220M412.9,274.2L409.5,268.9C410.8,268.1,411.7,267.5,412.3,266.9C413.4,265.8,413.8,264.7,413.6,263.5C413.4,262.3,411.9,260.3,409.2,257.5L377.3,225.6L382.4,220.5L414.4,252.5C418.2,256.2,420.3,259.3,420.8,261.7C421.4,264.9,420.3,267.9,417.5,270.8C416.1,272.1,414.5,273.3,412.9,274.2M420.9,242.6L379.1,200.7L384.2,195.6L426.1,237.5L420.9,242.6M416.8,216.5C411.2,210.8,408.6,205.1,409,199.3C409.3,194.4,411.4,190.1,415.1,186.4C419.3,182.2,424.1,180.1,429.5,180.2C434.9,180.3,440,182.8,444.8,187.6C448.7,191.5,451.2,195.2,452.2,198.6C453.3,202,453.3,205.4,452.3,208.9C451.3,212.4,449.5,215.4,446.9,218.1C442.6,222.3,437.8,224.4,432.5,224.3C427.1,224.2,421.9,221.6,416.8,216.5M422.1,211.2C425.9,215.1,429.7,217.1,433.3,217.4C437,217.6,440.1,216.4,442.6,213.9C445.2,211.3,446.3,208.2,446.1,204.6C445.8,200.9,443.7,197.1,439.7,193.1C436,189.4,432.3,187.4,428.7,187.2C425,186.9,421.9,188.1,419.4,190.6C416.8,193.2,415.7,196.3,415.9,199.9C416.1,203.5,418.2,207.3,422.1,211.2M467.7,200.9L473.5,196.6C475.2,197.9,476.9,198.5,478.6,198.2C480.8,197.9,483,196.6,485.3,194.4C487.6,192.1,489,189.7,489.3,187.5C489.7,185.2,489.2,183,488,180.9C487.2,179.5,485.1,177.2,481.7,173.9C482.1,178.8,480.7,182.9,477.3,186.3C473.1,190.4,468.4,192.2,463.1,191.4C457.8,190.7,453.1,188.2,448.9,184C446,181.1,443.8,177.9,442.4,174.4C441,170.9,440.6,167.5,441.3,164.2C442,160.9,443.6,157.9,446.3,155.2C449.9,151.6,454.3,150.1,459.5,150.7L455.9,147L460.6,142.3L486.8,168.5C491.6,173.2,494.4,177.1,495.4,180C496.4,182.9,496.5,186,495.5,189.2C494.6,192.5,492.6,195.6,489.5,198.7C485.9,202.3,482.2,204.4,478.3,205C474.5,205.6,470.9,204.2,467.7,200.9M453.8,178.4C457.8,182.4,461.4,184.5,464.9,184.7C468.3,185,471.2,183.9,473.5,181.5C475.9,179.2,477,176.3,476.8,172.8C476.5,169.4,474.5,165.8,470.6,161.9C466.9,158.2,463.3,156.2,459.7,156C456.2,155.7,453.3,156.8,450.9,159.1C448.7,161.4,447.6,164.2,447.9,167.7C448.2,171.2,450.1,174.7,453.8,178.4M462.5,129.1L456.6,123.2L461.8,118L467.7,123.9L462.5,129.1M498.5,165.1L468.2,134.7L473.3,129.6L503.7,159.9L498.5,165.1M511.3,152.3L480.9,121.9L485.6,117.3L489.9,121.6C488.8,116.1,490.3,111.2,494.5,107C496.4,105.1,498.4,103.8,500.6,102.9C502.8,102,504.8,101.8,506.6,102.1C508.4,102.4,510.2,103.1,512,104.3C513.1,105,514.9,106.6,517.3,109L535.9,127.6L530.8,132.8L512.3,114.3C510.2,112.2,508.5,110.9,507,110.2C505.6,109.6,504.1,109.5,502.4,109.9C500.8,110.3,499.3,111.1,497.9,112.5C495.7,114.7,494.5,117.3,494.3,120.3C494.1,123.3,496,126.7,499.9,130.6L516.4,147.2L511.3,152.3" fill-opacity="0.5" stroke-opacity="0.5" fill="#ff0000"/><g transform="translate(39,47)" id="table1"><g><path stroke-width="1.33333" stroke="#000000" d="M0,0L284.9,0L284.9,40L0,40L0,0z" fill="none"/><text class="st1"><tspan y="25.5" x="111">七层模型</tspan></text></g><g><path stroke-width="1.33333" stroke="#000000" d="M284.9,0L388.4,0L388.4,40L284.9,40L284.9,0z" fill="none"/><text class="st1"><tspan y="25.5" x="304.9">五层模型</tspan></text></g><g><path stroke-width="1.33333" stroke="#000000" d="M388.4,0L488.4,0L488.4,40L388.4,40L388.4,0z" fill="none"/><text class="st1"><tspan y="25.5" x="406.4">四层模型</tspan></text></g><g><path stroke-width="1.33333" stroke="#000000" d="M488.4,0L777.8,0L777.8,40L488.4,40L488.4,0z" fill="none"/><text class="st1"><tspan y="25.5" x="593.4">对应的协议</tspan></text></g><g><path stroke-width="1.33333" stroke="#000000" d="M0,40L284.9,40L284.9,80L0,80L0,40z" fill="none"/><text class="st2"><tspan y="65.5" x="44">应用层(Application Layer)</tspan></text></g><g><path d="M284.9,40L388.4,40L388.4,80L284.9,80L284.9,40z" fill="none"/><text class="st2"/></g><g><path d="M388.4,40L488.4,40L488.4,80L388.4,80L388.4,40z" fill="none"/><text class="st2"/></g><g><path stroke-width="1.33333" stroke="#000000" d="M488.4,40L777.8,40L777.8,80L488.4,80L488.4,40z" fill="none"/><text class="st2"><tspan y="65.5" x="497.4">HTTP/FTP/TFTP/NFS/SMTP</tspan></text></g><g><path stroke-width="1.33333" stroke="#000000" d="M0,80L284.9,80L284.9,120L0,120L0,80z" fill="none"/><text class="st2"><tspan y="105.5" x="40">表示层(Presentation Layer)</tspan></text></g><g><path d="M284.9,80L388.4,80L388.4,120L284.9,120L284.9,80z" fill="none"/><text class="st2"><tspan y="105.5" x="314.9">应用层</tspan></text></g><g><path d="M388.4,80L488.4,80L488.4,120L388.4,120L388.4,80z" fill="none"/><text class="st2"><tspan y="105.5" x="416.4">应用层</tspan></text></g><g><path stroke-width="1.33333" stroke="#000000" d="M488.4,80L777.8,80L777.8,120L488.4,120L488.4,80z" fill="none"/><text class="st2"><tspan y="105.5" x="497.4">ASCII/ASN.1/JPEG/MPEG</tspan></text></g><g><path stroke-width="1.33333" stroke="#000000" d="M0,120L284.9,120L284.9,160L0,160L0,120z" fill="none"/><text class="st2"><tspan y="145.5" x="60">会话层(Session Layer)</tspan></text></g><g><path d="M284.9,120L388.4,120L388.4,160L284.9,160L284.9,120z" fill="none"/><text class="st2"/></g><g><path d="M388.4,120L488.4,120L488.4,160L388.4,160L388.4,120z" fill="none"/><text class="st2"/></g><g><path stroke-width="1.33333" stroke="#000000" d="M488.4,120L777.8,120L777.8,160L488.4,160L488.4,120z" fill="none"/><text class="st2"><tspan y="145.5" x="497.4">NetBIOS/ZIP(AppleTalk区域信息协议)</tspan></text></g><g><path stroke-width="1.33333" stroke="#000000" d="M0,160L284.9,160L284.9,200L0,200L0,160z" fill="none"/><text class="st2"><tspan y="185.5" x="52">运输层(Transport Layer)</tspan></text></g><g><path stroke-width="1.33333" stroke="#000000" d="M284.9,160L388.4,160L388.4,200L284.9,200L284.9,160z" fill="none"/><text class="st2"><tspan y="185.5" x="314.9">运输层</tspan></text></g><g><path stroke-width="1.33333" stroke="#000000" d="M388.4,160L488.4,160L488.4,200L388.4,200L388.4,160z" fill="none"/><text class="st2"><tspan y="185.5" x="416.4">运输层</tspan></text></g><g><path stroke-width="1.33333" stroke="#000000" d="M488.4,160L777.8,160L777.8,200L488.4,200L488.4,160z" fill="none"/><text class="st2"><tspan y="185.5" x="497.4">TCP/UDP</tspan></text></g><g><path stroke-width="1.33333" stroke="#000000" d="M0,200L284.9,200L284.9,240L0,240L0,200z" fill="none"/><text class="st2"><tspan y="225.5" x="60">网络层(Network Layer)</tspan></text></g><g><path stroke-width="1.33333" stroke="#000000" d="M284.9,200L388.4,200L388.4,240L284.9,240L284.9,200z" fill="none"/><text class="st2"><tspan y="225.5" x="314.9">网络层</tspan></text></g><g><path stroke-width="1.33333" stroke="#000000" d="M388.4,200L488.4,200L488.4,240L388.4,240L388.4,200z" fill="none"/><text class="st2"><tspan y="225.5" x="416.4">网际层</tspan></text></g><g><path stroke-width="1.33333" stroke="#000000" d="M488.4,200L777.8,200L777.8,240L488.4,240L488.4,200z" fill="none"/><text class="st2"><tspan y="225.5" x="497.4">IP/ICMP/ARP/RARP/AKP/UUCP</tspan></text></g><g><path stroke-width="1.33333" stroke="#000000" d="M0,240L284.9,240L284.9,280L0,280L0,240z" fill="none"/><text class="st2"><tspan y="265.5" x="37">数据链路层(Data Link Layer)</tspan></text></g><g><path stroke-width="1.33333" stroke="#000000" d="M284.9,240L388.4,240L388.4,280L284.9,280L284.9,240z" fill="none"/><text class="st2"><tspan y="265.5" x="299.9">数据链路层</tspan></text></g><g><path d="M388.4,240L488.4,240L488.4,280L388.4,280L388.4,240z" fill="none"/><text class="st2"><tspan y="265.5" x="401.4">网络接口层</tspan></text></g><g><path stroke-width="1.33333" stroke="#000000" d="M488.4,240L777.8,240L777.8,280L488.4,280L488.4,240z" fill="none"/><text class="st2"><tspan y="265.5" x="497.4">FDDI/Ethernet/PDN/PPP/SLIP</tspan></text></g><g><path stroke-width="1.33333" stroke="#000000" d="M0,280L284.9,280L284.9,320L0,320L0,280z" fill="none"/><text class="st2"><tspan y="305.5" x="56">物理层(Physical Layer)</tspan></text></g><g><path stroke-width="1.33333" stroke="#000000" d="M284.9,280L388.4,280L388.4,320L284.9,320L284.9,280z" fill="none"/><text class="st2"><tspan y="305.5" x="314.9">物理层</tspan></text></g><g><path d="M388.4,280L488.4,280L488.4,320L388.4,320L388.4,280z" fill="none"/><text class="st2"/></g><g><path stroke-width="1.33333" stroke="#000000" d="M488.4,280L777.8,280L777.8,320L488.4,320L488.4,280z" fill="none"/><text class="st2"><tspan y="305.5" x="497.4">IEEE802.1A/IEEE802.2-802.11</tspan></text></g></g><g transform="translate(297,48)"><path transform="matrix(0,1,-1,0,130.5,0)" stroke-width="2" stroke="#000000" d="M0,0L280,0" id="shape2" fill="none"/><path transform="translate(0,319)" stroke-width="2" stroke="#000000" d="M0,0L348,0" id="shape3" fill="none"/></g></g></svg>